<?xml version="1.0" encoding="utf-8"?>
<!-- Generator: Adobe Illustrator 16.0.0, SVG Export Plug-In . SVG Version: 6.00 Build 0)  -->
<!DOCTYPE svg PUBLIC "-//W3C//DTD SVG 1.1//EN" "http://www.w3.org/Graphics/SVG/1.1/DTD/svg11.dtd">
<svg version="1.1" id="Layer_1" xmlns="http://www.w3.org/2000/svg" xmlns:xlink="http://www.w3.org/1999/xlink" x="0px" y="0px"
	 width="346.558px" height="180.067px" viewBox="0 0 346.558 180.067" enable-background="new 0 0 346.558 180.067"
	 xml:space="preserve">
<path fill-rule="evenodd" clip-rule="evenodd" fill="#005C7F" d="M189.872,180.067c-11.32,0-22.641,0-33.961,0
	c0-23.929,0-47.857,0-72.162c-2.205,0-3.721,0-5.237,0c-47.016,0-94.032-0.003-141.047,0.006c-3.467,0.001-6.932,0.084-10.398,0.129
	c0-12.004,0-24.009,0-36.013c0.64,0.043,1.28,0.127,1.919,0.127c50.356,0.006,100.711,0.008,151.067-0.002
	c1.007,0,2.011-0.125,3.573-0.228c0-1.825-0.003-3.513,0-5.2c0.041-22.241,0.083-44.482,0.124-66.724c11.32,0,22.641,0,33.961,0
	c0,23.928,0,47.857,0,72.162c2.205,0,3.721,0,5.239,0c47.013,0,94.03,0.002,141.047-0.006c3.464-0.001,6.931-0.084,10.396-0.129
	c0,12.004,0,24.009,0,36.013c-0.641-0.043-1.279-0.126-1.92-0.126c-50.356-0.008-100.711-0.009-151.067,0
	c-1.005,0-2.011,0.126-3.57,0.229c0,1.825,0.001,3.513-0.001,5.2C189.956,135.583,189.914,157.825,189.872,180.067z"/>
<path fill-rule="evenodd" clip-rule="evenodd" fill="#005C7F" d="M143.562,0c0,17.948,0,35.896,0,54.266
	c-1.425-0.635-2.478-1.04-3.476-1.558c-32.643-16.911-65.284-33.829-97.912-50.77C41.175,1.421,40.297,0.652,39.364,0
	C74.096,0,108.829,0,143.562,0z"/>
<path fill-rule="evenodd" clip-rule="evenodd" fill="#005C7F" d="M306.417,0c-0.934,0.652-1.812,1.419-2.812,1.938
	c-32.627,16.94-65.266,33.858-97.908,50.77c-0.999,0.517-2.052,0.923-3.477,1.558c0-18.37,0-36.318,0-54.265
	C236.954,0,271.687,0,306.417,0z"/>
<path fill-rule="evenodd" clip-rule="evenodd" fill="#005C7F" d="M39.364,180.067c0.81-0.596,1.562-1.313,2.438-1.769
	c33.025-17.149,66.063-34.275,99.101-51.4c0.67-0.348,1.373-0.631,2.658-1.218c0,18.406,0,36.396,0,54.387
	C108.829,180.067,74.096,180.067,39.364,180.067z"/>
<path fill-rule="evenodd" clip-rule="evenodd" fill="#005C7F" d="M202.221,180.067c0-17.943,0-35.887,0-54.258
	c1.312,0.565,2.36,0.944,3.343,1.455c32.701,16.934,65.396,33.877,98.079,50.844c0.992,0.515,1.854,1.3,2.775,1.959
	C271.687,180.067,236.954,180.067,202.221,180.067z"/>
<path fill-rule="evenodd" clip-rule="evenodd" fill="#005C7F" d="M345.784,0c-20.862,10.881-41.712,21.781-62.585,32.639
	c-16.517,8.593-33.039,17.177-49.621,25.639c-1.869,0.954-4.114,1.478-6.201,1.538c-6.673,0.192-13.353,0.07-20.351-0.541
	c1.107-0.626,2.196-1.289,3.324-1.873c35.568-18.458,71.142-36.906,106.707-55.372c1.13-0.586,2.172-1.35,3.255-2.03
	C328.801,0,337.292,0,345.784,0z"/>
<path fill-rule="evenodd" clip-rule="evenodd" fill="#005C7F" d="M0,180.067c20.885-10.896,41.76-21.807,62.655-32.68
	c16.422-8.546,32.845-17.093,49.333-25.502c1.981-1.01,4.36-1.561,6.574-1.631c6.642-0.209,13.295-0.075,21.138-0.075
	c-2.065,1.188-3.097,1.834-4.171,2.392c-35.609,18.479-71.222,36.947-106.826,55.436c-1.126,0.585-2.156,1.369-3.232,2.061
	C16.98,180.067,8.49,180.067,0,180.067z"/>
<path fill-rule="evenodd" clip-rule="evenodd" fill="#005C7F" d="M-0.772,20.808c0.842,0.261,1.743,0.4,2.517,0.8
	c23.65,12.24,47.289,24.503,70.927,36.769c0.449,0.234,0.873,0.523,1.259,1.646c-24.901,0-49.802,0-74.703,0
	C-0.772,46.951-0.772,33.879-0.772,20.808z"/>
<path fill-rule="evenodd" clip-rule="evenodd" fill="#005C7F" d="M346.554,60.022c-24.876,0-49.755,0-74.631,0
	c-0.067-0.228-0.136-0.456-0.202-0.685c0.574-0.386,1.119-0.833,1.729-1.148c23.405-12.152,46.815-24.297,70.234-36.417
	c0.892-0.459,1.913-0.648,2.87-0.964C346.554,33.879,346.554,46.951,346.554,60.022z"/>
<path fill-rule="evenodd" clip-rule="evenodd" fill="#005C7F" d="M-0.772,120.044c24.863,0,49.726,0,74.589,0
	c0.065,0.226,0.131,0.451,0.197,0.678c-0.578,0.384-1.127,0.826-1.739,1.144c-23.388,12.146-46.78,24.283-70.184,36.397
	c-0.892,0.461-1.906,0.67-2.863,0.995C-0.772,146.188-0.772,133.116-0.772,120.044z"/>
<path fill-rule="evenodd" clip-rule="evenodd" fill="#005C7F" d="M346.554,159.258c-0.84-0.271-1.736-0.429-2.511-0.83
	c-23.634-12.232-47.259-24.488-70.88-36.745c-0.451-0.233-0.873-0.525-1.263-1.639c24.884,0,49.769,0,74.653,0
	C346.554,133.116,346.554,146.188,346.554,159.258z"/>
<path fill-rule="evenodd" clip-rule="evenodd" fill="#005C7F" d="M0,0c1.25,0.847,2.432,1.832,3.758,2.521
	c35.615,18.49,71.244,36.95,106.87,55.42c0.79,0.41,1.548,0.884,3.323,1.904c-8.789,0-16.525,0.066-24.259-0.07
	c-1.181-0.021-2.375-0.923-3.516-1.514C58.711,44.042,31.257,29.803,3.79,15.591c-1.473-0.762-3.04-1.329-4.562-1.986
	c0-4.135-0.021-8.27,0.034-12.404C-0.733,0.797-0.257,0.4,0,0z"/>
<path fill-rule="evenodd" clip-rule="evenodd" fill="#005C7F" d="M345.784,180.067c-1.132-0.795-2.191-1.735-3.4-2.363
	c-35.727-18.544-71.471-37.058-107.208-55.58c-0.791-0.41-1.554-0.881-3.363-1.909c8.811,0,16.546-0.079,24.276,0.078
	c1.304,0.025,2.619,0.999,3.875,1.649c27.347,14.162,54.685,28.345,82.033,42.502c1.476,0.764,3.036,1.35,4.558,2.018
	c0,4.135,0.021,8.271-0.034,12.403C346.515,179.269,346.04,179.667,345.784,180.067z"/>
</svg>
